# Blender v3.0.0 OBJ File: 'land.blend'
# www.blender.org
mtllib land.mtl
o Plane
v -1.000000 -1.000000 1.000000
v 1.000000 -1.000000 1.000000
v -1.000000 -1.000000 -1.000000
v 1.000000 -0.802230 -1.000000
v -1.000000 -1.000000 0.000000
v 0.000000 -1.000000 1.000000
v 1.000000 -0.937232 0.000000
v 0.000000 -0.792096 -1.000000
v 0.000000 -1.000000 0.000000
v -1.000000 -1.000000 0.500000
v 0.500000 -1.000000 1.000000
v 1.000000 -0.839504 -0.500000
v -0.500000 -0.834001 -1.000000
v -1.000000 -1.000000 -0.500000
v -0.500000 -1.000000 1.000000
v 1.000000 -0.933454 0.500000
v 0.500000 -0.602102 -1.000000
v 0.000000 -0.898240 -0.500000
v 0.000000 -1.000000 0.500000
v -0.500000 -0.911764 0.000000
v 0.500000 -0.945164 0.000000
v 0.500000 -0.941839 0.500000
v -0.500000 -0.947580 0.500000
v -0.500000 -0.847822 -0.500000
v 0.500000 -0.890208 -0.500000
v -1.000000 -1.000000 0.750000
v 0.750000 -1.000000 1.000000
v 1.000000 -0.854788 -0.750000
v -0.750000 -0.879484 -1.000000
v -1.000000 -1.000000 -0.250000
v -0.250000 -1.000000 1.000000
v 1.000000 -0.957806 0.250000
v 0.250000 -0.744404 -1.000000
v 0.000000 -0.806431 -0.750000
v 0.000000 -1.000000 0.250000
v -0.750000 -0.945319 0.000000
v 0.250000 -1.000000 0.000000
v -1.000000 -1.000000 0.250000
v 0.250000 -1.000000 1.000000
v 1.000000 -0.917078 -0.250000
v -0.250000 -0.829356 -1.000000
v -1.000000 -1.000000 -0.750000
v -0.750000 -1.000000 1.000000
v 1.000000 -1.000000 0.750000
v 0.750000 -0.684498 -1.000000
v 0.000000 -0.935535 -0.250000
v 0.000000 -1.000000 0.750000
v -0.250000 -0.976964 0.000000
v 0.750000 -0.901308 0.000000
v 0.500000 -0.939277 0.250000
v 0.500000 -1.000000 0.750000
v 0.250000 -1.000000 0.500000
v 0.750000 -1.000000 0.500000
v -0.500000 -0.954970 0.250000
v -0.500000 -0.949442 0.750000
v -0.750000 -0.967906 0.500000
v -0.250000 -0.944703 0.500000
v -0.500000 -0.833888 -0.750000
v -0.500000 -0.869006 -0.250000
v -0.750000 -0.945319 -0.500000
v -0.250000 -0.845387 -0.500000
v 0.500000 -0.710859 -0.750000
v 0.500000 -0.910015 -0.250000
v 0.250000 -0.904465 -0.500000
v 0.750000 -0.847049 -0.500000
v 0.750000 -0.887509 -0.250000
v 0.250000 -1.000000 -0.250000
v 0.250000 -0.832587 -0.750000
v -0.250000 -0.947150 -0.250000
v -0.750000 -0.945319 -0.250000
v -0.750000 -0.945319 -0.750000
v -0.250000 -0.957821 0.750000
v -0.750000 -0.979141 0.750000
v -0.750000 -0.945319 0.250000
v 0.750000 -1.000000 0.750000
v 0.250000 -1.000000 0.750000
v 0.250000 -1.000000 0.250000
v 0.750000 -0.954036 0.250000
v -0.250000 -0.954349 0.250000
v -0.250000 -0.798835 -0.750000
v 0.750000 -0.726867 -0.750000
vt 1.659977 1.659978
vt 2.046637 1.659978
vt 2.046637 2.046637
vt 1.659977 2.046637
vt 0.113341 1.659978
vt 0.500000 1.659978
vt 0.500000 2.046637
vt 0.113341 2.046637
vt 0.113341 0.113341
vt 0.500000 0.113341
vt 0.500000 0.500000
vt 0.113341 0.500000
vt 1.659977 0.113341
vt 2.046637 0.113341
vt 2.046637 0.500000
vt 1.659977 0.500000
vt 0.886659 0.113341
vt 1.273318 0.113341
vt 1.273318 0.500000
vt 0.886659 0.500000
vt 0.886659 -0.659977
vt 1.273318 -0.659977
vt 1.273318 -0.273318
vt 0.886659 -0.273318
vt 1.659977 -0.659977
vt 2.046637 -0.659977
vt 2.046637 -0.273318
vt 1.659977 -0.273318
vt -0.659977 0.113341
vt -0.273318 0.113341
vt -0.273318 0.500000
vt -0.659977 0.500000
vt -0.659977 -0.659977
vt -0.273318 -0.659977
vt -0.273318 -0.273318
vt -0.659977 -0.273318
vt 0.113341 -0.659977
vt 0.500000 -0.659977
vt 0.500000 -0.273318
vt 0.113341 -0.273318
vt -0.659977 1.659978
vt -0.273318 1.659978
vt -0.273318 2.046637
vt -0.659977 2.046637
vt -0.659977 0.886659
vt -0.273318 0.886659
vt -0.273318 1.273319
vt -0.659977 1.273319
vt 0.113341 0.886659
vt 0.500000 0.886659
vt 0.500000 1.273319
vt 0.113341 1.273319
vt 0.886659 1.659978
vt 1.273318 1.659978
vt 1.273318 2.046637
vt 0.886659 2.046637
vt 0.886659 0.886659
vt 1.273318 0.886659
vt 1.273318 1.273319
vt 0.886659 1.273319
vt 1.659977 0.886659
vt 2.046637 0.886659
vt 2.046637 1.273319
vt 1.659977 1.273319
vt -1.046637 0.886659
vt -1.046637 1.273319
vt -1.046637 0.500000
vt -1.046637 1.659978
vt -1.046637 2.046637
vt -0.273318 -1.046637
vt 0.113341 -1.046637
vt 0.500000 -1.046637
vt -1.046637 -0.659977
vt -1.046637 -0.273318
vt -1.046637 -1.046637
vt -0.659977 -1.046637
vt -1.046637 0.113341
vt 1.273318 -1.046637
vt 1.659977 -1.046637
vt 2.046637 -1.046637
vt 0.886659 -1.046637
vn 0.2069 0.9307 0.3016
vn 0.3317 0.9250 0.1854
vn 0.4347 0.8848 0.1680
vn 0.3080 0.9230 0.2307
vn -0.0242 0.9970 0.0738
vn 0.0190 0.9821 0.1876
vn -0.0510 0.9950 0.0855
vn -0.0692 0.9965 -0.0467
vn 0.1141 0.9933 -0.0142
vn 0.0838 0.9963 -0.0160
vn 0.0719 0.9951 0.0668
vn 0.1401 0.9868 0.0804
vn 0.0104 0.9954 0.0947
vn -0.0232 0.9952 0.0943
vn 0.1039 0.9889 0.1063
vn 0.0048 0.9949 0.1007
vn -0.1149 0.9934 -0.0016
vn -0.0938 0.9945 0.0462
vn -0.1744 0.9827 0.0615
vn -0.0954 0.9943 0.0464
vn -0.0287 0.9991 0.0287
vn 0.0000 0.9983 0.0576
vn -0.0226 0.9963 0.0831
vn -0.0870 0.9957 0.0301
vn -0.0040 0.9981 0.0617
vn -0.0657 0.9957 0.0657
vn -0.1277 0.9880 0.0863
vn 0.0008 0.9952 0.0973
vn -0.1137 0.9927 0.0403
vn 0.0131 0.9994 0.0308
vn 0.0359 0.9953 0.0893
vn -0.1728 0.9840 0.0425
vn -0.0764 0.9954 0.0580
vn -0.0327 0.9949 0.0949
vn -0.0292 0.9995 0.0131
vn -0.0996 0.9945 0.0309
vn 0.0761 0.9938 0.0808
vn 0.0690 0.9972 0.0275
vn 0.0978 0.9952 0.0017
vn 0.0985 0.9951 0.0006
vn -0.3076 0.9491 0.0681
vn -0.2108 0.9761 0.0531
vn -0.1900 0.9812 0.0321
vn -0.3119 0.9420 0.1239
vn -0.2428 0.9696 0.0309
vn -0.0335 0.9911 0.1291
vn -0.1648 0.9803 0.1084
vn -0.2861 0.9580 0.0164
vn 0.1314 0.9695 0.2068
vn 0.0912 0.9734 0.2101
vn 0.0976 0.9566 0.2745
vn 0.0670 0.9725 0.2229
vn -0.1628 0.9300 0.3294
vn -0.1431 0.9055 0.3994
vn -0.1263 0.9380 0.3228
vn -0.2620 0.9247 0.2761
vn -0.0546 0.9842 0.1683
vn -0.1842 0.9746 0.1270
vn -0.1574 0.9326 0.3248
vn -0.0605 0.9488 0.3100
vn -0.0222 0.9913 0.1294
vn 0.0872 0.9851 0.1478
vn 0.1369 0.9668 0.2156
vn 0.0240 0.9611 0.2749
vn -0.2137 0.9769 0.0000
vn -0.2719 0.9603 0.0619
vn -0.3281 0.9365 0.1233
vn -0.0211 0.9866 0.1619
vn 0.0502 0.9898 0.1333
vn 0.0419 0.9982 0.0419
vn -0.0735 0.9968 0.0320
vn -0.1381 0.9898 0.0334
vn -0.0416 0.9983 0.0416
vn -0.0502 0.9945 0.0915
vn -0.1923 0.9810 0.0222
vn 0.0000 1.0000 0.0000
usemtl Material
s 1
f 81/1/1 28/2/2 4/3/3 45/4/4
f 80/5/5 34/6/6 8/7/7 41/8/8
f 79/9/9 35/10/10 9/11/11 48/12/12
f 78/13/13 32/14/14 7/15/15 49/16/16
f 77/17/17 50/18/18 21/19/19 37/20/20
f 76/21/21 51/22/22 22/23/23 52/24/24
f 75/25/25 44/26/26 16/27/27 53/28/28
f 74/29/29 54/30/30 20/31/31 36/32/32
f 73/33/33 55/34/34 23/35/35 56/36/36
f 72/37/37 47/38/38 19/39/39 57/40/40
f 71/41/41 58/42/42 13/43/43 29/44/44
f 70/45/45 59/46/46 24/47/47 60/48/48
f 69/49/49 46/50/50 18/51/51 61/52/52
f 68/53/53 62/54/54 17/55/55 33/56/56
f 67/57/57 63/58/58 25/59/59 64/60/60
f 66/61/61 40/62/62 12/63/63 65/64/64
f 63/58/58 66/61/61 65/64/64 25/59/59
f 21/19/19 49/16/16 66/61/61 63/58/58
f 49/16/16 7/15/15 40/62/62 66/61/61
f 46/50/50 67/57/57 64/60/60 18/51/51
f 9/11/11 37/20/20 67/57/57 46/50/50
f 37/20/20 21/19/19 63/58/58 67/57/57
f 34/6/6 68/53/53 33/56/56 8/7/7
f 18/51/51 64/60/60 68/53/53 34/6/6
f 64/60/60 25/59/59 62/54/54 68/53/53
f 59/46/46 69/49/49 61/52/52 24/47/47
f 20/31/31 48/12/12 69/49/49 59/46/46
f 48/12/12 9/11/11 46/50/50 69/49/49
f 30/65/65 70/45/45 60/48/48 14/66/65
f 5/67/65 36/32/32 70/45/45 30/65/65
f 36/32/32 20/31/31 59/46/46 70/45/45
f 42/68/66 71/41/41 29/44/44 3/69/67
f 14/66/65 60/48/48 71/41/41 42/68/66
f 60/48/48 24/47/47 58/42/42 71/41/41
f 55/34/34 72/37/37 57/40/40 23/35/35
f 15/70/68 31/71/69 72/37/37 55/34/34
f 31/71/69 6/72/70 47/38/38 72/37/37
f 26/73/71 73/33/33 56/36/36 10/74/72
f 1/75/73 43/76/74 73/33/33 26/73/71
f 43/76/74 15/70/68 55/34/34 73/33/33
f 38/77/75 74/29/29 36/32/32 5/67/65
f 10/74/72 56/36/36 74/29/29 38/77/75
f 56/36/36 23/35/35 54/30/30 74/29/29
f 51/22/22 75/25/25 53/28/28 22/23/23
f 11/78/76 27/79/76 75/25/25 51/22/22
f 27/79/76 2/80/76 44/26/26 75/25/25
f 47/38/38 76/21/21 52/24/24 19/39/39
f 6/72/70 39/81/76 76/21/21 47/38/38
f 39/81/76 11/78/76 51/22/22 76/21/21
f 35/10/10 77/17/17 37/20/20 9/11/11
f 19/39/39 52/24/24 77/17/17 35/10/10
f 52/24/24 22/23/23 50/18/18 77/17/17
f 50/18/18 78/13/13 49/16/16 21/19/19
f 22/23/23 53/28/28 78/13/13 50/18/18
f 53/28/28 16/27/27 32/14/14 78/13/13
f 54/30/30 79/9/9 48/12/12 20/31/31
f 23/35/35 57/40/40 79/9/9 54/30/30
f 57/40/40 19/39/39 35/10/10 79/9/9
f 58/42/42 80/5/5 41/8/8 13/43/43
f 24/47/47 61/52/52 80/5/5 58/42/42
f 61/52/52 18/51/51 34/6/6 80/5/5
f 62/54/54 81/1/1 45/4/4 17/55/55
f 25/59/59 65/64/64 81/1/1 62/54/54
f 65/64/64 12/63/63 28/2/2 81/1/1
