# Blender 4.1.1
# www.blender.org
o Plane
v 0.716838 -0.898302 0.394834
v -0.348326 -0.855243 0.364108
v 0.739186 0.697554 0.329692
v -0.631471 0.534412 0.407095
v 0.966208 -0.773622 -0.233628
v -0.470839 -0.772693 -0.465796
v 0.830321 0.682019 -0.219430
v -0.452646 0.542025 -0.489783
v 0.765433 -0.050716 0.394575
v 0.135206 -0.947500 0.385134
v -0.731701 -0.128692 0.393751
v 0.032778 0.791310 0.423909
v 0.943247 0.077782 -0.234649
v 0.286891 -0.717171 -0.362268
v -0.645269 -0.159394 -0.471620
v 0.233816 0.861456 -0.500589
v -0.516278 -0.933298 0.092857
v 1.079847 -1.048769 0.101753
v -0.636299 0.675707 0.008723
v 0.938792 0.871921 0.012534
v 0.263054 1.294935 -0.078144
v 1.145066 0.130743 0.046857
v -1.069297 -0.100896 0.228504
v 0.305294 -1.107081 0.038832
v 0.231159 -0.029590 -0.504675
v 0.009011 -0.108933 0.443359
v 0.742027 -0.559478 0.411497
v -0.132351 -0.925739 0.372713
v -0.744724 0.266462 0.421698
v 0.462245 0.781975 0.382049
v 0.981480 -0.422376 -0.253495
v -0.164896 -0.756536 -0.466991
v -0.574956 0.241453 -0.488221
v 0.602725 0.796646 -0.347118
v -0.538628 -0.881031 -0.246039
v 0.912537 -1.015276 0.291917
v -0.554242 0.628202 -0.298044
v 0.871017 0.824649 0.191850
v 0.777036 0.408376 0.367158
v 0.457883 -0.954317 0.404122
v -0.535936 -0.567885 0.380685
v -0.371787 0.677047 0.435991
v 0.893542 0.449109 -0.214456
v 0.711406 -0.771432 -0.289148
v -0.597830 -0.546894 -0.499714
v -0.162765 0.728404 -0.552508
v -0.417871 -0.928668 0.298331
v 1.077847 -0.953957 -0.106019
v -0.665147 0.626564 0.275846
v 0.913380 0.789599 -0.122708
v 0.271720 1.183980 -0.337346
v 0.155037 1.136434 0.213059
v -0.195731 1.072731 -0.068615
v 0.658679 1.173644 -0.036291
v 1.117878 0.127979 -0.103864
v 1.020717 0.048459 0.236416
v 1.079920 0.563208 0.032098
v 1.180596 -0.513047 0.081601
v -0.946730 -0.137730 -0.127833
v -0.981067 -0.107801 0.374798
v -0.878930 -0.564566 0.187303
v -0.965145 0.297406 0.141295
v 0.315112 -0.959823 -0.183228
v 0.232359 -1.117495 0.245423
v 0.749831 -1.179742 0.075173
v -0.119040 -1.066373 0.039353
v 0.219575 0.422483 -0.537627
v 0.255524 -0.410075 -0.457331
v 0.636243 0.029097 -0.374625
v -0.223959 -0.109396 -0.576289
v -0.386405 -0.124673 0.414093
v 0.410972 -0.095630 0.453407
v 0.058881 -0.580381 0.430576
v -0.010998 0.362302 0.472034
v -0.423106 0.309600 0.462012
v -0.200754 0.327514 -0.597577
v -0.144224 -0.954713 -0.243749
v -0.838479 0.258849 -0.191431
v 1.162008 -0.470867 -0.106732
v 0.648713 1.061657 -0.227724
v -0.158129 0.990143 -0.362835
v -0.283025 0.949842 0.237370
v 0.573509 1.066525 0.196945
v 1.048683 0.518620 -0.093240
v 0.994628 0.502828 0.206928
v 1.019553 -0.543313 0.275220
v -0.829127 -0.570921 -0.180225
v -0.757515 -0.565719 0.352205
v -0.930949 0.284843 0.339597
v 0.766591 -1.042915 -0.133336
v 0.610545 -1.154477 0.271653
v -0.097480 -1.075582 0.256395
v 0.606100 0.440251 -0.379783
v 0.671569 -0.400939 -0.358224
v -0.206010 -0.480383 -0.558345
v -0.256723 -0.578866 0.401182
v 0.406789 -0.577069 0.450824
v 0.422163 0.380551 0.448944
vn -0.0411 -0.0868 0.9954
vn -0.0168 0.0947 0.9954
vn -0.1496 0.1016 0.9835
vn -0.0834 -0.0957 0.9919
vn 0.1605 -0.0622 -0.9851
vn -0.2574 -0.0150 -0.9662
vn -0.2972 0.1266 -0.9464
vn 0.1105 0.0899 -0.9898
vn -0.0152 -0.8900 -0.4557
vn -0.2598 -0.9385 -0.2275
vn -0.0662 -0.8172 -0.5725
vn 0.1585 -0.6559 -0.7380
vn -0.9188 0.1788 -0.3519
vn -0.7794 0.5347 -0.3264
vn -0.7182 0.3376 -0.6084
vn -0.7432 0.0999 -0.6616
vn 0.9901 0.0602 -0.1267
vn 0.9772 -0.1797 -0.1129
vn 0.6408 -0.0952 -0.7618
vn 0.6144 0.0616 -0.7866
vn 0.3467 0.8403 -0.4167
vn 0.7130 0.5660 -0.4139
vn 0.5699 0.2556 -0.7809
vn 0.3888 0.3537 -0.8507
vn -0.6704 0.6863 -0.2820
vn -0.3950 0.8564 -0.3325
vn -0.1264 0.5196 -0.8450
vn -0.5511 0.5420 -0.6345
vn -0.4515 0.6349 0.6270
vn -0.1745 0.5846 0.7923
vn -0.3885 0.8760 0.2857
vn -0.6481 0.7556 0.0955
vn 0.1055 0.5010 0.8590
vn 0.3379 0.4493 0.8270
vn 0.5876 0.6618 0.4655
vn 0.1835 0.8481 0.4971
vn 0.8511 0.3748 -0.3676
vn 0.9607 0.1556 -0.2300
vn 0.5742 0.1223 -0.8095
vn 0.5889 0.1781 -0.7884
vn 0.5513 0.2150 0.8061
vn 0.5402 0.0609 0.8393
vn 0.8415 0.1129 0.5283
vn 0.8091 0.3650 0.4606
vn 0.4778 0.0338 0.8778
vn 0.4378 -0.0713 0.8962
vn 0.7527 -0.1316 0.6451
vn 0.7924 0.0582 0.6073
vn -0.7272 -0.6826 -0.0726
vn -0.9322 -0.2988 -0.2042
vn -0.7760 -0.0949 -0.6236
vn -0.6932 -0.5097 -0.5096
vn -0.2306 -0.2876 0.9296
vn -0.1041 -0.0880 0.9907
vn -0.7711 -0.3816 0.5096
vn -0.6280 -0.6796 0.3791
vn -0.2243 0.0195 0.9743
vn -0.5162 0.4171 0.7481
vn -0.7547 0.6491 0.0947
vn -0.9128 0.2302 0.3373
vn 0.3232 -0.8318 -0.4514
vn -0.0909 -0.8286 -0.5523
vn 0.0330 -0.5417 -0.8399
vn 0.1977 -0.4675 -0.8616
vn 0.1495 -0.4782 0.8655
vn -0.0891 -0.6284 0.7728
vn -0.1297 -0.9910 -0.0318
vn 0.3359 -0.8545 0.3962
vn -0.0702 -0.6409 0.7644
vn -0.1956 -0.6014 0.7746
vn -0.3516 -0.9318 0.0897
vn -0.1096 -0.9922 -0.0593
vn 0.4511 0.0631 -0.8902
vn 0.3438 -0.0248 -0.9387
vn 0.3839 0.0754 -0.9203
vn 0.5072 0.0976 -0.8563
vn 0.2672 -0.1089 -0.9575
vn 0.1851 -0.2129 -0.9594
vn 0.2726 -0.0555 -0.9605
vn 0.3673 0.0315 -0.9296
vn 0.2422 -0.2679 -0.9325
vn -0.0521 -0.2582 -0.9647
vn -0.1964 -0.0038 -0.9805
vn 0.1962 -0.0739 -0.9778
vn -0.0759 -0.1238 0.9894
vn -0.0813 -0.0434 0.9957
vn -0.0657 -0.0529 0.9964
vn -0.0760 -0.1078 0.9913
vn 0.0916 -0.0845 0.9922
vn 0.1400 0.0104 0.9901
vn -0.0400 -0.0180 0.9990
vn -0.0586 -0.1325 0.9894
vn 0.1915 0.0288 0.9811
vn 0.2179 0.1451 0.9651
vn 0.0731 0.1296 0.9889
vn 0.0166 -0.0254 0.9995
vt 0.168420 0.279615
vt 0.185084 0.387741
vt 0.089291 0.394366
vt 0.078305 0.293722
vt 0.215107 0.482779
vt 0.117980 0.475261
vt 0.052862 0.454411
vt 0.014784 0.398822
vt -0.000000 0.308291
vt 0.562484 0.196497
vt 0.531778 0.092885
vt 0.632966 0.085852
vt 0.666233 0.180833
vt 0.508345 0.000000
vt 0.602525 0.004840
vt 0.675034 0.024642
vt 0.726083 0.084615
vt 0.767476 0.172947
vt 0.717423 0.817707
vt 0.704729 0.738763
vt 0.769467 0.711638
vt 0.769345 0.792254
vt 0.681076 0.651192
vt 0.758459 0.632659
vt 0.811428 0.623202
vt 0.820962 0.673059
vt 0.300307 0.603139
vt 0.292581 0.496167
vt 0.338720 0.482779
vt 0.356398 0.588098
vt 0.000000 0.935119
vt 0.008315 0.847995
vt 0.081374 0.823342
vt 0.078546 0.909942
vt 0.020606 0.728517
vt 0.089273 0.713110
vt 0.131865 0.705501
vt 0.141609 0.775571
vt 0.148467 0.855440
vt 0.931544 0.703462
vt 0.925931 0.554070
vt 0.969441 0.564871
vt 0.967022 0.703695
vt 0.928033 0.430279
vt 0.975084 0.453307
vt 0.485520 0.430279
vt 0.372090 0.424163
vt 0.410857 0.390938
vt 0.492120 0.384451
vt 0.622022 0.403938
vt 0.606041 0.362489
vt 0.902790 0.101504
vt 0.879406 0.194970
vt 0.854216 0.189922
vt 0.878362 0.099293
vt 0.819786 0.256344
vt 0.805680 0.328818
vt 0.768599 0.330752
vt 0.768599 0.258662
vt 0.794079 0.256344
vt 0.768599 0.236421
vt 0.792876 0.179916
vt 0.804011 0.090896
vt 0.016475 0.590853
vt 0.084369 0.588656
vt -0.000000 0.482779
vt 0.061368 0.491096
vt 0.828368 0.002014
vt 0.768599 0.000000
vt 0.133445 0.627302
vt 0.836595 0.711676
vt 0.820962 0.648359
vt 0.859892 0.582167
vt 0.866121 0.697169
vt 0.372090 0.953529
vt 0.464264 0.921998
vt 0.534410 0.969238
vt 0.426246 0.991535
vt 0.851169 0.482496
vt 0.912704 0.430279
vt 0.925931 0.538798
vt 0.925931 0.676524
vt 0.545090 0.863314
vt 0.604991 0.900759
vt 0.587048 0.810249
vt 0.629807 0.815547
vt 0.949812 0.030170
vt 0.952853 0.087780
vt 0.915835 0.072672
vt 0.902790 -0.000000
vt 0.636862 0.907286
vt 0.577784 0.981882
vt 0.942762 0.876034
vt 0.934864 0.803925
vt 0.964921 0.794357
vt 0.975084 0.857757
vt 0.709925 0.377688
vt 0.690011 0.341436
vt 0.768599 0.338690
vt 0.741848 0.320510
vt 0.555906 0.750633
vt 0.610842 0.738189
vt 0.493025 0.665038
vt 0.555747 0.648566
vt 0.952036 0.163085
vt 0.947385 0.268574
vt 0.911030 0.245542
vt 0.917024 0.145203
vt 0.421421 0.571414
vt 0.477297 0.536462
vt 0.372090 0.510002
vt 0.394622 0.460828
vt 0.423323 0.430279
vt 0.513228 0.518840
vt 0.940150 0.405725
vt 0.902790 0.394812
vt 0.650064 0.533856
vt 0.735941 0.536193
vt 0.636862 0.430279
vt 0.722224 0.450012
vt 0.810143 0.498270
vt 0.816366 0.565838
vt 0.257250 0.496752
vt 0.227911 0.570740
vt 0.178083 0.581236
vt 0.238765 0.482779
vt 0.203824 0.679524
vt 0.148467 0.695627
vt 1.000000 0.115228
vt 0.989941 0.223949
vt 0.956012 0.237008
vt 0.961932 0.132761
vt 1.000000 0.000000
vt 0.952854 0.011736
vt 0.218957 0.769997
vt 0.178465 0.782109
vt 0.257250 0.825439
vt 0.255291 0.846851
vt 0.863842 0.798304
vt 0.910062 0.795580
vt 0.863376 0.874392
vt 0.899138 0.882415
vt 0.293935 0.786743
vt 0.257250 0.712869
vt 0.289920 0.709593
vt 0.316534 0.779989
vt 0.722122 0.905776
vt 0.771096 0.883392
vt 0.352044 0.688292
vt 0.356398 0.748088
vt 0.293492 0.067939
vt 0.232088 0.067026
vt 0.258992 0.013610
vt 0.333643 0.031695
vt 0.159395 0.083041
vt 0.175159 0.038932
vt 0.672921 0.881852
vt 0.667741 0.810864
vt 0.291524 0.000000
vt 0.372090 0.014997
vt 0.099819 0.100005
vt 0.102126 0.063478
vt 0.054130 0.125727
vt 0.035699 0.111683
vt 0.655491 0.748117
vt 0.636862 0.671334
vt 0.586780 0.290483
vt 0.680525 0.272280
vt 0.762303 0.262512
vt 0.404491 0.331322
vt 0.488804 0.310629
vt 0.405469 0.231038
vt 0.475510 0.213451
vt 0.384253 0.126376
vt 0.446898 0.107477
vt 0.372090 0.056766
vt 0.420616 0.020805
vt 0.158352 0.170214
vt 0.087133 0.184622
vt 0.024506 0.199602
vt 0.314494 0.143858
vt 0.237218 0.155365
vt 0.343204 0.258175
vt 0.260113 0.264505
vt 0.367081 0.361666
vt 0.284433 0.372077
vt 0.372090 0.428739
vt 0.312558 0.460870
s 0
f 26/1/1 74/2/1 75/3/1 71/4/1
f 74/2/2 12/5/2 42/6/2 75/3/2
f 75/3/3 42/6/3 4/7/3 29/8/3
f 71/4/4 75/3/4 29/8/4 11/9/4
f 25/10/5 70/11/5 76/12/5 67/13/5
f 70/11/6 15/14/6 33/15/6 76/12/6
f 76/12/7 33/15/7 8/16/7 46/17/7
f 67/13/8 76/12/8 46/17/8 16/18/8
f 24/19/9 66/20/9 77/21/9 63/22/9
f 66/20/10 17/23/10 35/24/10 77/21/10
f 77/21/11 35/24/11 6/25/11 32/26/11
f 63/27/12 77/28/12 32/29/12 14/30/12
f 23/31/13 62/32/13 78/33/13 59/34/13
f 62/32/14 19/35/14 37/36/14 78/33/14
f 78/33/15 37/36/15 8/37/15 33/38/15
f 59/34/16 78/33/16 33/38/16 15/39/16
f 22/40/17 58/41/17 79/42/17 55/43/17
f 58/41/18 18/44/18 48/45/18 79/42/18
f 79/46/19 48/47/19 5/48/19 31/49/19
f 55/50/20 79/46/20 31/49/20 13/51/20
f 21/52/21 54/53/21 80/54/21 51/55/21
f 54/56/22 20/57/22 50/58/22 80/59/22
f 80/54/23 50/60/23 7/61/23 34/62/23
f 51/55/24 80/54/24 34/62/24 16/63/24
f 19/35/25 53/64/25 81/65/25 37/36/25
f 53/64/26 21/66/26 51/67/26 81/65/26
f 81/68/27 51/55/27 16/63/27 46/69/27
f 37/36/28 81/65/28 46/70/28 8/37/28
f 4/71/29 42/72/29 82/73/29 49/74/29
f 42/75/30 12/76/30 52/77/30 82/78/30
f 82/73/31 52/79/31 21/80/31 53/81/31
f 49/74/32 82/73/32 53/81/32 19/82/32
f 12/76/33 30/83/33 83/84/33 52/77/33
f 30/83/34 3/85/34 38/86/34 83/84/34
f 83/87/35 38/88/35 20/89/35 54/90/35
f 52/77/36 83/84/36 54/91/36 21/92/36
f 20/93/37 57/94/37 84/95/37 50/96/37
f 57/94/38 22/40/38 55/43/38 84/95/38
f 84/97/39 55/50/39 13/51/39 43/98/39
f 50/99/40 84/97/40 43/98/40 7/100/40
f 3/85/41 39/101/41 85/102/41 38/86/41
f 39/101/42 9/103/42 56/104/42 85/102/42
f 85/105/43 56/106/43 22/107/43 57/108/43
f 38/88/44 85/105/44 57/108/44 20/89/44
f 9/103/45 27/109/45 86/110/45 56/104/45
f 27/109/46 1/111/46 36/112/46 86/110/46
f 86/110/47 36/112/47 18/113/47 58/114/47
f 56/106/48 86/115/48 58/116/48 22/107/48
f 17/23/49 61/117/49 87/118/49 35/24/49
f 61/117/50 23/119/50 59/120/50 87/118/50
f 87/118/51 59/120/51 15/121/51 45/122/51
f 35/24/52 87/118/52 45/122/52 6/25/52
f 2/123/53 41/124/53 88/125/53 47/126/53
f 41/124/54 11/127/54 60/128/54 88/125/54
f 88/129/55 60/130/55 23/131/55 61/132/55
f 47/133/56 88/129/56 61/132/56 17/134/56
f 11/127/57 29/135/57 89/136/57 60/128/57
f 29/135/58 4/137/58 49/138/58 89/136/58
f 89/139/59 49/74/59 19/82/59 62/140/59
f 60/141/60 89/139/60 62/140/60 23/142/60
f 18/143/61 65/144/61 90/145/61 48/146/61
f 65/147/62 24/19/62 63/22/62 90/148/62
f 90/145/63 63/27/63 14/30/63 44/149/63
f 48/146/64 90/145/64 44/149/64 5/150/64
f 1/151/65 40/152/65 91/153/65 36/154/65
f 40/152/66 10/155/66 64/156/66 91/153/66
f 91/157/67 64/158/67 24/19/67 65/147/67
f 36/154/68 91/153/68 65/159/68 18/160/68
f 10/155/69 28/161/69 92/162/69 64/156/69
f 28/161/70 2/163/70 47/164/70 92/162/70
f 92/165/71 47/166/71 17/23/71 66/20/71
f 64/158/72 92/165/72 66/20/72 24/19/72
f 13/51/73 69/167/73 93/168/73 43/98/73
f 69/167/74 25/10/74 67/13/74 93/168/74
f 93/168/75 67/13/75 16/18/75 34/169/75
f 43/98/76 93/168/76 34/169/76 7/100/76
f 5/48/77 44/170/77 94/171/77 31/49/77
f 44/170/78 14/172/78 68/173/78 94/171/78
f 94/171/79 68/173/79 25/10/79 69/167/79
f 31/49/80 94/171/80 69/167/80 13/51/80
f 14/172/81 32/174/81 95/175/81 68/173/81
f 32/174/82 6/176/82 45/177/82 95/175/82
f 95/175/83 45/177/83 15/14/83 70/11/83
f 68/173/84 95/175/84 70/11/84 25/10/84
f 10/155/85 73/178/85 96/179/85 28/161/85
f 73/178/86 26/1/86 71/4/86 96/179/86
f 96/179/87 71/4/87 11/9/87 41/180/87
f 28/161/88 96/179/88 41/180/88 2/163/88
f 1/151/89 27/181/89 97/182/89 40/152/89
f 27/181/90 9/183/90 72/184/90 97/182/90
f 97/182/91 72/184/91 26/1/91 73/178/91
f 40/152/92 97/182/92 73/178/92 10/155/92
f 9/183/93 39/185/93 98/186/93 72/184/93
f 39/185/94 3/187/94 30/188/94 98/186/94
f 98/186/95 30/188/95 12/5/95 74/2/95
f 72/184/96 98/186/96 74/2/96 26/1/96
